<?xml version="1.0" encoding="UTF-8" standalone="no"?>
<!-- Created with Inkscape (http://www.inkscape.org/) -->

<svg
   xmlns:dc="http://purl.org/dc/elements/1.1/"
   xmlns:cc="http://creativecommons.org/ns#"
   xmlns:rdf="http://www.w3.org/1999/02/22-rdf-syntax-ns#"
   xmlns:svg="http://www.w3.org/2000/svg"
   xmlns="http://www.w3.org/2000/svg"
   xmlns:sodipodi="http://sodipodi.sourceforge.net/DTD/sodipodi-0.dtd"
   xmlns:inkscape="http://www.inkscape.org/namespaces/inkscape"
   width="242.12173mm"
   height="101.36354mm"
   viewBox="0 0 857.91165 359.16215"
   id="svg4641"
   version="1.1"
   inkscape:version="0.91 r13725"
   sodipodi:docname="modeling_process.svg"
   inkscape:export-filename="/home/candan/.4geit/tool/4i_master/share/4i/images/modeling_process.png"
   inkscape:export-xdpi="90.000526"
   inkscape:export-ydpi="90.000526">
  <defs
     id="defs4643" />
  <sodipodi:namedview
     id="base"
     pagecolor="#ffffff"
     bordercolor="#666666"
     borderopacity="1.0"
     inkscape:pageopacity="0.0"
     inkscape:pageshadow="2"
     inkscape:zoom="0.7"
     inkscape:cx="379.21719"
     inkscape:cy="344.06795"
     inkscape:document-units="px"
     inkscape:current-layer="layer1"
     showgrid="false"
     fit-margin-top="0"
     fit-margin-left="0"
     fit-margin-right="0"
     fit-margin-bottom="0"
     inkscape:window-width="956"
     inkscape:window-height="1059"
     inkscape:window-x="0"
     inkscape:window-y="17"
     inkscape:window-maximized="0"
     showguides="true"
     inkscape:guide-bbox="true" />
  <metadata
     id="metadata4646">
    <rdf:RDF>
      <cc:Work
         rdf:about="">
        <dc:format>image/svg+xml</dc:format>
        <dc:type
           rdf:resource="http://purl.org/dc/dcmitype/StillImage" />
        <dc:title></dc:title>
      </cc:Work>
    </rdf:RDF>
  </metadata>
  <g
     inkscape:label="Layer 1"
     inkscape:groupmode="layer"
     id="layer1"
     transform="translate(240.11032,-776.83045)">
    <ellipse
       id="path3098-6-5-62"
       style="fill:none;stroke:#bc7f7f;stroke-width:51.39059067;stroke-linejoin:round;stroke-miterlimit:4;stroke-dasharray:none;stroke-opacity:1"
       cx="191.39282"
       cy="918.22748"
       rx="87.079567"
       ry="94.336197" />
    <g
       transform="matrix(4.6363643,0,0,4.6363643,-2431.1492,-6179.4551)"
       id="g4515-5-3"
       style="fill:#bc7f7f;fill-opacity:1;stroke:#bc7f7f;stroke-opacity:1">
      <path
         style="fill:#bc7f7f;fill-opacity:1;stroke:#bc7f7f;stroke-width:1.10842431px;stroke-linecap:butt;stroke-linejoin:miter;stroke-opacity:1"
         d="m 555.5274,1506.8256 -1.00592,-3.1881 7.74406,-1.9392 0.80017,3.3733 z"
         id="path3876-5-7-0"
         inkscape:connector-curvature="0"
         sodipodi:nodetypes="ccccc"
         inkscape:transform-center-y="1.3695202" />
      <path
         style="fill:#bc7f7f;fill-opacity:1;stroke:#bc7f7f;stroke-width:1.10842431px;stroke-linecap:butt;stroke-linejoin:miter;stroke-opacity:1"
         d="m 567.40483,1504.8909 0.68718,-3.2719 7.69967,2.1086 -0.9572,3.332 z"
         id="path3876-6-1-5-13"
         inkscape:connector-curvature="0"
         sodipodi:nodetypes="ccccc" />
      <path
         style="fill:#bc7f7f;fill-opacity:1;stroke:#bc7f7f;stroke-width:1.10842431px;stroke-linecap:butt;stroke-linejoin:miter;stroke-opacity:1"
         d="m 579.06209,1508.8418 2.08961,-2.6095 5.91974,5.356 -2.35778,2.5416 z"
         id="path3876-61-8-4-2"
         inkscape:connector-curvature="0"
         sodipodi:nodetypes="ccccc"
         inkscape:transform-center-x="-4.8073674"
         inkscape:transform-center-y="-1.567103" />
      <path
         style="fill:#bc7f7f;fill-opacity:1;stroke:#bc7f7f;stroke-width:1.10842431px;stroke-linecap:butt;stroke-linejoin:miter;stroke-opacity:1"
         d="m 586.81976,1517.5751 3.0699,-1.3236 2.71355,7.5077 -3.27482,1.1378 z"
         id="path3876-61-4-9-9-2"
         inkscape:connector-curvature="0"
         sodipodi:nodetypes="ccccc"
         inkscape:transform-center-x="-4.9645841"
         inkscape:transform-center-y="0.80947894" />
      <path
         style="fill:#bc7f7f;fill-opacity:1;stroke:#bc7f7f;stroke-width:1.10842431px;stroke-linecap:butt;stroke-linejoin:miter;stroke-opacity:1"
         d="m 590.03007,1528.9936 3.34207,-0.081 -0.28681,7.978 -3.46281,-0.1678 z"
         id="path3876-61-4-0-91-8-6"
         inkscape:connector-curvature="0"
         sodipodi:nodetypes="ccccc"
         inkscape:transform-center-x="-4.2079198"
         inkscape:transform-center-y="2.6510239" />
      <path
         style="fill:#bc7f7f;fill-opacity:1;stroke:#bc7f7f;stroke-width:1.10842431px;stroke-linecap:butt;stroke-linejoin:miter;stroke-opacity:1"
         d="m 588.49644,1541.0935 2.89261,1.6759 -4.41006,6.6546 -2.86571,-1.9514 z"
         id="path3876-61-4-0-9-5-2-0"
         inkscape:connector-curvature="0"
         sodipodi:nodetypes="ccccc"
         inkscape:transform-center-x="-2.2484762"
         inkscape:transform-center-y="4.5241425" />
      <path
         style="fill:#bc7f7f;fill-opacity:1;stroke:#bc7f7f;stroke-width:1.10842431px;stroke-linecap:butt;stroke-linejoin:miter;stroke-opacity:1"
         d="m 580.67825,1551.3324 1.99285,2.6841 -6.68422,4.3649 -1.85909,-2.9263 z"
         id="path3876-61-4-0-9-2-2-3-45"
         inkscape:connector-curvature="0"
         sodipodi:nodetypes="ccccc"
         inkscape:transform-center-x="-0.32824454"
         inkscape:transform-center-y="5.0393093" />
      <path
         style="fill:#bc7f7f;fill-opacity:1;stroke:#bc7f7f;stroke-width:1.10842431px;stroke-linecap:butt;stroke-linejoin:miter;stroke-opacity:1"
         d="m 569.62182,1556.8799 0.21894,3.3359 -7.98309,0.043 0.0248,-3.4667 z"
         id="path3876-61-4-0-9-2-3-8-9-9"
         inkscape:connector-curvature="0"
         sodipodi:nodetypes="ccccc"
         inkscape:transform-center-x="2.4035573"
         inkscape:transform-center-y="4.3319109" />
      <path
         style="fill:#bc7f7f;fill-opacity:1;stroke:#bc7f7f;stroke-width:1.10842431px;stroke-linecap:butt;stroke-linejoin:miter;stroke-opacity:1"
         d="m 557.52581,1555.1292 -1.27852,3.0887 -7.17939,-3.4909 1.55508,-3.0986 z"
         id="path3876-61-4-0-9-2-3-0-9-3-9"
         inkscape:connector-curvature="0"
         sodipodi:nodetypes="ccccc"
         inkscape:transform-center-x="4.1887843"
         inkscape:transform-center-y="2.8089041" />
      <path
         style="fill:#bc7f7f;fill-opacity:1;stroke:#bc7f7f;stroke-width:1.10842431px;stroke-linecap:butt;stroke-linejoin:miter;stroke-opacity:1"
         d="m 547.65135,1548.5055 -2.63048,2.0627 -4.53998,-6.5664 2.87625,-1.9357 z"
         id="path3876-61-4-0-9-2-3-0-2-8-1-3"
         inkscape:connector-curvature="0"
         sodipodi:nodetypes="ccccc"
         inkscape:transform-center-x="5.0307051"
         inkscape:transform-center-y="0.45785343" />
      <path
         style="fill:#bc7f7f;fill-opacity:1;stroke:#bc7f7f;stroke-width:1.10842431px;stroke-linecap:butt;stroke-linejoin:miter;stroke-opacity:1"
         d="m 542.24153,1537.7817 -3.23119,0.8568 -1.57765,-7.8257 3.40693,-0.6425 z"
         id="path3876-61-4-0-9-2-3-0-2-5-3-2-4"
         inkscape:connector-curvature="0"
         sodipodi:nodetypes="ccccc"
         inkscape:transform-center-x="4.7774404"
         inkscape:transform-center-y="-1.5170966" />
      <path
         style="fill:#bc7f7f;fill-opacity:1;stroke:#bc7f7f;stroke-width:1.10842431px;stroke-linecap:butt;stroke-linejoin:miter;stroke-opacity:1"
         d="m 541.43483,1525.529 -3.22911,-0.8644 2.52544,-7.5732 3.27488,1.138 z"
         id="path3876-61-4-0-9-2-3-0-2-5-4-03-3-1"
         inkscape:connector-curvature="0"
         sodipodi:nodetypes="ccccc"
         inkscape:transform-center-x="3.3129477"
         inkscape:transform-center-y="-3.7860921" />
      <path
         style="fill:#bc7f7f;fill-opacity:1;stroke:#bc7f7f;stroke-width:1.10842431px;stroke-linecap:butt;stroke-linejoin:miter;stroke-opacity:1"
         d="m 546.83525,1514.7169 -2.61157,-2.0865 5.35004,-5.9254 2.54379,2.3558 z"
         id="path3876-61-4-0-9-2-3-0-2-5-4-0-0-6-0"
         inkscape:connector-curvature="0"
         sodipodi:nodetypes="ccccc"
         inkscape:transform-center-x="1.5717941"
         inkscape:transform-center-y="-4.8060066" />
    </g>
    <path
       style="opacity:1;fill:#668000;fill-opacity:1;fill-rule:nonzero;stroke:none;stroke-width:0.5728125;stroke-linecap:round;stroke-linejoin:round;stroke-miterlimit:4;stroke-dasharray:none;stroke-dashoffset:0;stroke-opacity:1"
       d="m 143.44014,919.02754 c -5e-5,54.01783 99.72274,-48.6679 45.70489,-48.6679 -54.01785,0 49.31031,102.68573 49.31024,48.6679 -2e-5,-54.01783 -103.32816,47.06775 -49.31024,47.06775 54.0179,0 -45.70487,-101.08558 -45.70489,-47.06775 z"
       id="path4327"
       inkscape:connector-curvature="0"
       sodipodi:nodetypes="sssss" />
    <path
       id="path4338-7"
       style="opacity:1;fill:#668000;fill-opacity:1;fill-rule:nonzero;stroke:none;stroke-width:1;stroke-linecap:round;stroke-linejoin:round;stroke-miterlimit:4;stroke-dasharray:none;stroke-dashoffset:0;stroke-opacity:1"
       d="m 501.62328,912.85634 a 19.033445,19.033445 0 0 1 -19.03344,19.0334 19.033445,19.033445 0 0 1 -19.03345,-19.0334 19.033445,19.033445 0 0 1 19.03345,-19.0335 19.033445,19.033445 0 0 1 19.03344,19.0335 z m -9.63718,17.3469 a 19.033445,19.033445 0 0 1 -19.03345,19.0335 19.033445,19.033445 0 0 1 -19.03344,-19.0335 19.033445,19.033445 0 0 1 19.03344,-19.0334 19.033445,19.033445 0 0 1 19.03345,19.0334 z m 26.50226,-4.3367 a 19.033445,19.033445 0 0 1 -19.03344,19.0334 19.033445,19.033445 0 0 1 -19.03345,-19.0334 19.033445,19.033445 0 0 1 19.03345,-19.0335 19.033445,19.033445 0 0 1 19.03344,19.0335 z m -24.57483,-7.7098 a 19.033445,19.033445 0 0 1 -19.03344,19.0334 19.033445,19.033445 0 0 1 -19.03345,-19.0334 19.033445,19.033445 0 0 1 19.03345,-19.0335 19.033445,19.033445 0 0 1 19.03344,19.0335 z m -4.33673,39.5125 a 19.033445,19.033445 0 0 1 -19.03344,19.0334 19.033445,19.033445 0 0 1 -19.03344,-19.0334 19.033445,19.033445 0 0 1 19.03344,-19.0335 19.033445,19.033445 0 0 1 19.03344,19.0335 z m -17.8288,-8.6735 a 19.033445,19.033445 0 0 1 -19.03344,19.0334 19.033445,19.033445 0 0 1 -19.03344,-19.0334 19.033445,19.033445 0 0 1 19.03344,-19.0334 19.033445,19.033445 0 0 1 19.03344,19.0334 z m -6.26417,-19.2744 a 19.033445,19.033445 0 0 1 -19.03344,19.0335 19.033445,19.033445 0 0 1 -19.03345,-19.0335 19.033445,19.033445 0 0 1 19.03345,-19.0334 19.033445,19.033445 0 0 1 19.03344,19.0334 z m 48.6678,28.4297 a 19.033445,19.033445 0 0 1 -19.03345,19.0335 19.033445,19.033445 0 0 1 -19.03344,-19.0335 19.033445,19.033445 0 0 1 19.03344,-19.0334 19.033445,19.033445 0 0 1 19.03345,19.0334 z m 22.16553,-7.2279 a 19.033445,19.033445 0 0 1 -19.03345,19.0335 19.033445,19.033445 0 0 1 -19.03344,-19.0335 19.033445,19.033445 0 0 1 19.03344,-19.0334 19.033445,19.033445 0 0 1 19.03345,19.0334 z m 12.52834,-21.6836 a 19.033445,19.033445 0 0 1 -19.03344,19.0334 19.033445,19.033445 0 0 1 -19.03345,-19.0334 19.033445,19.033445 0 0 1 19.03345,-19.0335 19.033445,19.033445 0 0 1 19.03344,19.0335 z m -3.37301,-18.7925 a 19.033445,19.033445 0 0 1 -19.03345,19.0334 19.033445,19.033445 0 0 1 -19.03344,-19.0334 19.033445,19.033445 0 0 1 19.03344,-19.0335 19.033445,19.033445 0 0 1 19.03345,19.0335 z m -11.08277,-14.9377 a 19.033445,19.033445 0 0 1 -19.03344,19.0334 19.033445,19.033445 0 0 1 -19.03345,-19.0334 19.033445,19.033445 0 0 1 19.03345,-19.03346 19.033445,19.033445 0 0 1 19.03344,19.03346 z m -18.31065,-6.2642 a 19.033445,19.033445 0 0 1 -19.03345,19.0335 19.033445,19.033445 0 0 1 -19.03345,-19.0335 19.033445,19.033445 0 0 1 19.03345,-19.03342 19.033445,19.033445 0 0 1 19.03345,19.03342 z m -19.75624,-2.4093 a 19.033445,19.033445 0 0 1 -19.03344,19.0335 19.033445,19.033445 0 0 1 -19.03345,-19.0335 19.033445,19.033445 0 0 1 19.03345,-19.03341 19.033445,19.033445 0 0 1 19.03344,19.03341 z m -18.31066,7.2279 a 19.033445,19.033445 0 0 1 -19.03344,19.0335 19.033445,19.033445 0 0 1 -19.03345,-19.0335 19.033445,19.033445 0 0 1 19.03345,-19.03341 19.033445,19.033445 0 0 1 19.03344,19.03341 z m -12.28741,14.6967 a 19.033445,19.033445 0 0 1 -19.03344,19.0335 19.033445,19.033445 0 0 1 -19.03345,-19.0335 19.033445,19.033445 0 0 1 19.03345,-19.0334 19.033445,19.033445 0 0 1 19.03344,19.0334 z"
       inkscape:connector-curvature="0" />
    <ellipse
       id="path3098-6-5-62-3"
       style="fill:none;stroke:#bc7f7f;stroke-width:51.39059067;stroke-linejoin:round;stroke-miterlimit:4;stroke-dasharray:none;stroke-opacity:1"
       cx="486.5881"
       cy="921.3739"
       rx="87.079567"
       ry="94.336197" />
    <g
       transform="matrix(4.6363643,0,0,4.6363643,-2135.954,-6176.3088)"
       id="g4515-5-3-8"
       style="fill:#bc7f7f;fill-opacity:1;stroke:#bc7f7f;stroke-opacity:1">
      <path
         style="fill:#bc7f7f;fill-opacity:1;stroke:#bc7f7f;stroke-width:1.10842431px;stroke-linecap:butt;stroke-linejoin:miter;stroke-opacity:1"
         d="m 555.5274,1506.8256 -1.00592,-3.1881 7.74406,-1.9392 0.80017,3.3733 z"
         id="path3876-5-7-0-7"
         inkscape:connector-curvature="0"
         sodipodi:nodetypes="ccccc"
         inkscape:transform-center-y="1.3695202" />
      <path
         style="fill:#bc7f7f;fill-opacity:1;stroke:#bc7f7f;stroke-width:1.10842431px;stroke-linecap:butt;stroke-linejoin:miter;stroke-opacity:1"
         d="m 567.40483,1504.8909 0.68718,-3.2719 7.69967,2.1086 -0.9572,3.332 z"
         id="path3876-6-1-5-13-6"
         inkscape:connector-curvature="0"
         sodipodi:nodetypes="ccccc" />
      <path
         style="fill:#bc7f7f;fill-opacity:1;stroke:#bc7f7f;stroke-width:1.10842431px;stroke-linecap:butt;stroke-linejoin:miter;stroke-opacity:1"
         d="m 579.06209,1508.8418 2.08961,-2.6095 5.91974,5.356 -2.35778,2.5416 z"
         id="path3876-61-8-4-2-1"
         inkscape:connector-curvature="0"
         sodipodi:nodetypes="ccccc"
         inkscape:transform-center-x="-4.8073674"
         inkscape:transform-center-y="-1.567103" />
      <path
         style="fill:#bc7f7f;fill-opacity:1;stroke:#bc7f7f;stroke-width:1.10842431px;stroke-linecap:butt;stroke-linejoin:miter;stroke-opacity:1"
         d="m 586.81976,1517.5751 3.0699,-1.3236 2.71355,7.5077 -3.27482,1.1378 z"
         id="path3876-61-4-9-9-2-4"
         inkscape:connector-curvature="0"
         sodipodi:nodetypes="ccccc"
         inkscape:transform-center-x="-4.9645841"
         inkscape:transform-center-y="0.80947894" />
      <path
         style="fill:#bc7f7f;fill-opacity:1;stroke:#bc7f7f;stroke-width:1.10842431px;stroke-linecap:butt;stroke-linejoin:miter;stroke-opacity:1"
         d="m 590.03007,1528.9936 3.34207,-0.081 -0.28681,7.978 -3.46281,-0.1678 z"
         id="path3876-61-4-0-91-8-6-9"
         inkscape:connector-curvature="0"
         sodipodi:nodetypes="ccccc"
         inkscape:transform-center-x="-4.2079198"
         inkscape:transform-center-y="2.6510239" />
      <path
         style="fill:#bc7f7f;fill-opacity:1;stroke:#bc7f7f;stroke-width:1.10842431px;stroke-linecap:butt;stroke-linejoin:miter;stroke-opacity:1"
         d="m 588.49644,1541.0935 2.89261,1.6759 -4.41006,6.6546 -2.86571,-1.9514 z"
         id="path3876-61-4-0-9-5-2-0-8"
         inkscape:connector-curvature="0"
         sodipodi:nodetypes="ccccc"
         inkscape:transform-center-x="-2.2484762"
         inkscape:transform-center-y="4.5241425" />
      <path
         style="fill:#bc7f7f;fill-opacity:1;stroke:#bc7f7f;stroke-width:1.10842431px;stroke-linecap:butt;stroke-linejoin:miter;stroke-opacity:1"
         d="m 580.67825,1551.3324 1.99285,2.6841 -6.68422,4.3649 -1.85909,-2.9263 z"
         id="path3876-61-4-0-9-2-2-3-45-1"
         inkscape:connector-curvature="0"
         sodipodi:nodetypes="ccccc"
         inkscape:transform-center-x="-0.32824454"
         inkscape:transform-center-y="5.0393093" />
      <path
         style="fill:#bc7f7f;fill-opacity:1;stroke:#bc7f7f;stroke-width:1.10842431px;stroke-linecap:butt;stroke-linejoin:miter;stroke-opacity:1"
         d="m 569.62182,1556.8799 0.21894,3.3359 -7.98309,0.043 0.0248,-3.4667 z"
         id="path3876-61-4-0-9-2-3-8-9-9-5"
         inkscape:connector-curvature="0"
         sodipodi:nodetypes="ccccc"
         inkscape:transform-center-x="2.4035573"
         inkscape:transform-center-y="4.3319109" />
      <path
         style="fill:#bc7f7f;fill-opacity:1;stroke:#bc7f7f;stroke-width:1.10842431px;stroke-linecap:butt;stroke-linejoin:miter;stroke-opacity:1"
         d="m 557.52581,1555.1292 -1.27852,3.0887 -7.17939,-3.4909 1.55508,-3.0986 z"
         id="path3876-61-4-0-9-2-3-0-9-3-9-1"
         inkscape:connector-curvature="0"
         sodipodi:nodetypes="ccccc"
         inkscape:transform-center-x="4.1887843"
         inkscape:transform-center-y="2.8089041" />
      <path
         style="fill:#bc7f7f;fill-opacity:1;stroke:#bc7f7f;stroke-width:1.10842431px;stroke-linecap:butt;stroke-linejoin:miter;stroke-opacity:1"
         d="m 547.65135,1548.5055 -2.63048,2.0627 -4.53998,-6.5664 2.87625,-1.9357 z"
         id="path3876-61-4-0-9-2-3-0-2-8-1-3-4"
         inkscape:connector-curvature="0"
         sodipodi:nodetypes="ccccc"
         inkscape:transform-center-x="5.0307051"
         inkscape:transform-center-y="0.45785343" />
      <path
         style="fill:#bc7f7f;fill-opacity:1;stroke:#bc7f7f;stroke-width:1.10842431px;stroke-linecap:butt;stroke-linejoin:miter;stroke-opacity:1"
         d="m 542.24153,1537.7817 -3.23119,0.8568 -1.57765,-7.8257 3.40693,-0.6425 z"
         id="path3876-61-4-0-9-2-3-0-2-5-3-2-4-4"
         inkscape:connector-curvature="0"
         sodipodi:nodetypes="ccccc"
         inkscape:transform-center-x="4.7774404"
         inkscape:transform-center-y="-1.5170966" />
      <path
         style="fill:#bc7f7f;fill-opacity:1;stroke:#bc7f7f;stroke-width:1.10842431px;stroke-linecap:butt;stroke-linejoin:miter;stroke-opacity:1"
         d="m 541.43483,1525.529 -3.22911,-0.8644 2.52544,-7.5732 3.27488,1.138 z"
         id="path3876-61-4-0-9-2-3-0-2-5-4-03-3-1-1"
         inkscape:connector-curvature="0"
         sodipodi:nodetypes="ccccc"
         inkscape:transform-center-x="3.3129477"
         inkscape:transform-center-y="-3.7860921" />
      <path
         style="fill:#bc7f7f;fill-opacity:1;stroke:#bc7f7f;stroke-width:1.10842431px;stroke-linecap:butt;stroke-linejoin:miter;stroke-opacity:1"
         d="m 546.83525,1514.7169 -2.61157,-2.0865 5.35004,-5.9254 2.54379,2.3558 z"
         id="path3876-61-4-0-9-2-3-0-2-5-4-0-0-6-0-1"
         inkscape:connector-curvature="0"
         sodipodi:nodetypes="ccccc"
         inkscape:transform-center-x="1.5717941"
         inkscape:transform-center-y="-4.8060066" />
    </g>
    <ellipse
       id="path3098-6-5-62-7"
       style="fill:none;stroke:#bc7f7f;stroke-width:51.39059067;stroke-linejoin:round;stroke-miterlimit:4;stroke-dasharray:none;stroke-opacity:1"
       cx="-106.26903"
       cy="915.65948"
       rx="87.079567"
       ry="94.336197" />
    <g
       transform="matrix(4.6363643,0,0,4.6363643,-2728.811,-6182.0231)"
       id="g4515-5-3-2"
       style="fill:#bc7f7f;fill-opacity:1;stroke:#bc7f7f;stroke-opacity:1">
      <path
         style="fill:#bc7f7f;fill-opacity:1;stroke:#bc7f7f;stroke-width:1.10842431px;stroke-linecap:butt;stroke-linejoin:miter;stroke-opacity:1"
         d="m 555.5274,1506.8256 -1.00592,-3.1881 7.74406,-1.9392 0.80017,3.3733 z"
         id="path3876-5-7-0-0"
         inkscape:connector-curvature="0"
         sodipodi:nodetypes="ccccc"
         inkscape:transform-center-y="1.3695202" />
      <path
         style="fill:#bc7f7f;fill-opacity:1;stroke:#bc7f7f;stroke-width:1.10842431px;stroke-linecap:butt;stroke-linejoin:miter;stroke-opacity:1"
         d="m 567.40483,1504.8909 0.68718,-3.2719 7.69967,2.1086 -0.9572,3.332 z"
         id="path3876-6-1-5-13-3"
         inkscape:connector-curvature="0"
         sodipodi:nodetypes="ccccc" />
      <path
         style="fill:#bc7f7f;fill-opacity:1;stroke:#bc7f7f;stroke-width:1.10842431px;stroke-linecap:butt;stroke-linejoin:miter;stroke-opacity:1"
         d="m 579.06209,1508.8418 2.08961,-2.6095 5.91974,5.356 -2.35778,2.5416 z"
         id="path3876-61-8-4-2-11"
         inkscape:connector-curvature="0"
         sodipodi:nodetypes="ccccc"
         inkscape:transform-center-x="-4.8073674"
         inkscape:transform-center-y="-1.567103" />
      <path
         style="fill:#bc7f7f;fill-opacity:1;stroke:#bc7f7f;stroke-width:1.10842431px;stroke-linecap:butt;stroke-linejoin:miter;stroke-opacity:1"
         d="m 586.81976,1517.5751 3.0699,-1.3236 2.71355,7.5077 -3.27482,1.1378 z"
         id="path3876-61-4-9-9-2-0"
         inkscape:connector-curvature="0"
         sodipodi:nodetypes="ccccc"
         inkscape:transform-center-x="-4.9645841"
         inkscape:transform-center-y="0.80947894" />
      <path
         style="fill:#bc7f7f;fill-opacity:1;stroke:#bc7f7f;stroke-width:1.10842431px;stroke-linecap:butt;stroke-linejoin:miter;stroke-opacity:1"
         d="m 590.03007,1528.9936 3.34207,-0.081 -0.28681,7.978 -3.46281,-0.1678 z"
         id="path3876-61-4-0-91-8-6-5"
         inkscape:connector-curvature="0"
         sodipodi:nodetypes="ccccc"
         inkscape:transform-center-x="-4.2079198"
         inkscape:transform-center-y="2.6510239" />
      <path
         style="fill:#bc7f7f;fill-opacity:1;stroke:#bc7f7f;stroke-width:1.10842431px;stroke-linecap:butt;stroke-linejoin:miter;stroke-opacity:1"
         d="m 588.49644,1541.0935 2.89261,1.6759 -4.41006,6.6546 -2.86571,-1.9514 z"
         id="path3876-61-4-0-9-5-2-0-1"
         inkscape:connector-curvature="0"
         sodipodi:nodetypes="ccccc"
         inkscape:transform-center-x="-2.2484762"
         inkscape:transform-center-y="4.5241425" />
      <path
         style="fill:#bc7f7f;fill-opacity:1;stroke:#bc7f7f;stroke-width:1.10842431px;stroke-linecap:butt;stroke-linejoin:miter;stroke-opacity:1"
         d="m 580.67825,1551.3324 1.99285,2.6841 -6.68422,4.3649 -1.85909,-2.9263 z"
         id="path3876-61-4-0-9-2-2-3-45-8"
         inkscape:connector-curvature="0"
         sodipodi:nodetypes="ccccc"
         inkscape:transform-center-x="-0.32824454"
         inkscape:transform-center-y="5.0393093" />
      <path
         style="fill:#bc7f7f;fill-opacity:1;stroke:#bc7f7f;stroke-width:1.10842431px;stroke-linecap:butt;stroke-linejoin:miter;stroke-opacity:1"
         d="m 569.62182,1556.8799 0.21894,3.3359 -7.98309,0.043 0.0248,-3.4667 z"
         id="path3876-61-4-0-9-2-3-8-9-9-8"
         inkscape:connector-curvature="0"
         sodipodi:nodetypes="ccccc"
         inkscape:transform-center-x="2.4035573"
         inkscape:transform-center-y="4.3319109" />
      <path
         style="fill:#bc7f7f;fill-opacity:1;stroke:#bc7f7f;stroke-width:1.10842431px;stroke-linecap:butt;stroke-linejoin:miter;stroke-opacity:1"
         d="m 557.52581,1555.1292 -1.27852,3.0887 -7.17939,-3.4909 1.55508,-3.0986 z"
         id="path3876-61-4-0-9-2-3-0-9-3-9-7"
         inkscape:connector-curvature="0"
         sodipodi:nodetypes="ccccc"
         inkscape:transform-center-x="4.1887843"
         inkscape:transform-center-y="2.8089041" />
      <path
         style="fill:#bc7f7f;fill-opacity:1;stroke:#bc7f7f;stroke-width:1.10842431px;stroke-linecap:butt;stroke-linejoin:miter;stroke-opacity:1"
         d="m 547.65135,1548.5055 -2.63048,2.0627 -4.53998,-6.5664 2.87625,-1.9357 z"
         id="path3876-61-4-0-9-2-3-0-2-8-1-3-8"
         inkscape:connector-curvature="0"
         sodipodi:nodetypes="ccccc"
         inkscape:transform-center-x="5.0307051"
         inkscape:transform-center-y="0.45785343" />
      <path
         style="fill:#bc7f7f;fill-opacity:1;stroke:#bc7f7f;stroke-width:1.10842431px;stroke-linecap:butt;stroke-linejoin:miter;stroke-opacity:1"
         d="m 542.24153,1537.7817 -3.23119,0.8568 -1.57765,-7.8257 3.40693,-0.6425 z"
         id="path3876-61-4-0-9-2-3-0-2-5-3-2-4-8"
         inkscape:connector-curvature="0"
         sodipodi:nodetypes="ccccc"
         inkscape:transform-center-x="4.7774404"
         inkscape:transform-center-y="-1.5170966" />
      <path
         style="fill:#bc7f7f;fill-opacity:1;stroke:#bc7f7f;stroke-width:1.10842431px;stroke-linecap:butt;stroke-linejoin:miter;stroke-opacity:1"
         d="m 541.43483,1525.529 -3.22911,-0.8644 2.52544,-7.5732 3.27488,1.138 z"
         id="path3876-61-4-0-9-2-3-0-2-5-4-03-3-1-7"
         inkscape:connector-curvature="0"
         sodipodi:nodetypes="ccccc"
         inkscape:transform-center-x="3.3129477"
         inkscape:transform-center-y="-3.7860921" />
      <path
         style="fill:#bc7f7f;fill-opacity:1;stroke:#bc7f7f;stroke-width:1.10842431px;stroke-linecap:butt;stroke-linejoin:miter;stroke-opacity:1"
         d="m 546.83525,1514.7169 -2.61157,-2.0865 5.35004,-5.9254 2.54379,2.3558 z"
         id="path3876-61-4-0-9-2-3-0-2-5-4-0-0-6-0-3"
         inkscape:connector-curvature="0"
         sodipodi:nodetypes="ccccc"
         inkscape:transform-center-x="1.5717941"
         inkscape:transform-center-y="-4.8060066" />
    </g>
    <circle
       style="opacity:1;fill:#aa8800;fill-opacity:1;fill-rule:nonzero;stroke:none;stroke-width:1;stroke-linecap:round;stroke-linejoin:round;stroke-miterlimit:4;stroke-dasharray:none;stroke-dashoffset:0;stroke-opacity:1"
       id="path4576"
       cx="-106.1545"
       cy="915.65961"
       r="14.285714" />
    <text
       xml:space="preserve"
       style="font-style:normal;font-weight:normal;font-size:46.21148682px;line-height:125%;font-family:Sans;-inkscape-font-specification:Sans;letter-spacing:0px;word-spacing:0px;fill:#bc7f7f;fill-opacity:1;stroke:none;stroke-width:1px;stroke-linecap:butt;stroke-linejoin:miter;stroke-opacity:1;"
       x="-227.69098"
       y="1135.225"
       id="text4578"
       sodipodi:linespacing="125%"><tspan
         sodipodi:role="line"
         id="tspan4580"
         x="-227.69098"
         y="1135.225">MODELIZE</tspan></text>
    <text
       xml:space="preserve"
       style="font-style:normal;font-weight:normal;font-size:46.21148682px;line-height:125%;font-family:Sans;-inkscape-font-specification:Sans;letter-spacing:0px;word-spacing:0px;fill:#bc7f7f;fill-opacity:1;stroke:none;stroke-width:1px;stroke-linecap:butt;stroke-linejoin:miter;stroke-opacity:1;"
       x="92.404976"
       y="1135.3383"
       id="text4578-6"
       sodipodi:linespacing="125%"><tspan
         sodipodi:role="line"
         id="tspan4580-9"
         x="92.404976"
         y="1135.3383">EXTEND</tspan></text>
    <text
       xml:space="preserve"
       style="font-style:normal;font-weight:normal;font-size:46.21148682px;line-height:125%;font-family:Sans;-inkscape-font-specification:Sans;letter-spacing:0px;word-spacing:0px;fill:#bc7f7f;fill-opacity:1;stroke:none;stroke-width:1px;stroke-linecap:butt;stroke-linejoin:miter;stroke-opacity:1;"
       x="410.97641"
       y="1135.3383"
       id="text4578-8"
       sodipodi:linespacing="125%"><tspan
         sodipodi:role="line"
         id="tspan4580-2"
         x="410.97641"
         y="1135.3383">BUILD</tspan></text>
  </g>
</svg>
